<!--?xml version="1.0" standalone="no"?-->
              <svg id="sw-js-blob-svg" viewBox="0 0 100 100" xmlns="http://www.w3.org/2000/svg" version="1.1">
                    <defs> 
                        <linearGradient id="sw-gradient" x1="0" x2="1" y1="1" y2="0">
                            <stop id="stop1" stop-color="rgba(64, 44, 32, 1)" offset="0%"></stop>
                            <stop id="stop2" stop-color="rgba(115, 78, 64, 1)" offset="100%"></stop>
                        </linearGradient>
                    </defs>
                <path fill="url(#sw-gradient)" d="M16.6,-26.5C22.8,-25.1,30,-23.3,34.6,-18.8C39.2,-14.3,41.3,-7.1,40.6,-0.4C39.9,6.3,36.4,12.7,33,19.4C29.7,26.1,26.4,33.1,20.9,35.5C15.4,37.9,7.7,35.7,0,35.8C-7.7,35.8,-15.5,38,-21.2,35.7C-26.8,33.4,-30.5,26.5,-34.1,19.8C-37.8,13.1,-41.5,6.6,-40.7,0.5C-39.9,-5.6,-34.6,-11.3,-30.2,-16.8C-25.9,-22.2,-22.4,-27.5,-17.5,-29.7C-12.6,-31.8,-6.3,-30.8,-0.6,-29.8C5.2,-28.8,10.4,-27.9,16.6,-26.5Z" width="100%" height="100%" transform="translate(50 50)" stroke-width="0" style="transition: all 0.3s ease 0s;" stroke="url(#sw-gradient)"></path>
              </svg>