<!--?xml version="1.0" standalone="no"?-->
              <svg id="sw-js-blob-svg" viewBox="0 0 100 100" xmlns="http://www.w3.org/2000/svg" version="1.1">
                    <defs> 
                        <linearGradient id="sw-gradient" x1="0" x2="1" y1="1" y2="0">
                            <stop id="stop1" stop-color="rgba(64, 44, 32, 1)" offset="0%"></stop>
                            <stop id="stop2" stop-color="rgba(64, 44, 32, 1)" offset="100%"></stop>
                        </linearGradient>
                    </defs>
                <path fill="none" d="M19.4,-36.3C23.4,-31.3,23.7,-22.6,25,-15.9C26.3,-9.2,28.7,-4.6,28.7,0C28.6,4.5,26.1,9.1,23.5,13.6C21,18.1,18.3,22.6,14.3,27.5C10.4,32.4,5.2,37.7,-0.2,38.1C-5.7,38.5,-11.4,34.1,-17.5,30.4C-23.6,26.8,-30,23.9,-33.6,19C-37.3,14,-38.1,7,-37.8,0.2C-37.4,-6.6,-36,-13.3,-32.4,-18.3C-28.8,-23.3,-23,-26.6,-17.3,-30.5C-11.5,-34.5,-5.8,-39.1,1,-40.8C7.7,-42.5,15.4,-41.3,19.4,-36.3Z" width="100%" height="100%" transform="translate(50 50)" stroke-width="1" style="transition: all 0.3s ease 0s;" stroke="url(#sw-gradient)"></path>
              </svg>