<!--?xml version="1.0" standalone="no"?-->
              <svg id="sw-js-blob-svg" viewBox="0 0 100 100" xmlns="http://www.w3.org/2000/svg" version="1.1">
                    <defs> 
                        <linearGradient id="sw-gradient" x1="0" x2="1" y1="1" y2="0">
                            <stop id="stop1" stop-color="rgba(64, 44, 32, 1)" offset="0%"></stop>
                            <stop id="stop2" stop-color="rgba(115, 78, 64, 1)" offset="100%"></stop>
                        </linearGradient>
                    </defs>
                <path fill="url(#sw-gradient)" d="M19.3,-34.3C23.7,-31,25,-23.1,26.5,-16.6C27.9,-10.1,29.6,-5.1,32.1,1.4C34.6,7.9,37.9,15.9,35.7,21.1C33.5,26.3,25.8,28.8,18.9,32C12.1,35.2,6,39,-1.1,41C-8.3,43,-16.6,43.1,-23.3,39.8C-29.9,36.5,-34.9,29.7,-38.5,22.5C-42.1,15.3,-44.3,7.7,-42.2,1.2C-40.2,-5.3,-33.8,-10.6,-30,-17.3C-26.1,-24.1,-24.8,-32.3,-20.2,-35.5C-15.6,-38.8,-7.8,-37,-0.2,-36.7C7.5,-36.4,14.9,-37.6,19.3,-34.3Z" width="100%" height="100%" transform="translate(50 50)" stroke-width="0" style="transition: all 0.3s ease 0s;" stroke="url(#sw-gradient)"></path>
              </svg>